<svg width="69" height="70" viewBox="0 0 69 70" fill="none" xmlns="http://www.w3.org/2000/svg">
<path d="M58.6654 10.7926C52.2121 4.39414 43.6179 0.875 34.4846 0.875C15.6328 0.875 0.292634 16.0484 0.292634 34.6953C0.292634 40.652 1.86362 46.4715 4.85156 51.6055L0 69.125L18.1279 64.4176C23.1181 67.1141 28.7397 68.5309 34.4692 68.5309H34.4846C53.321 68.5309 69 53.3574 69 34.7105C69 25.6766 65.1187 17.191 58.6654 10.7926ZM34.4846 62.8332C29.3712 62.8332 24.3656 61.4773 20.0069 58.918L18.975 58.3086L8.22455 61.0965L11.0893 50.7219L10.4116 49.6555C7.56228 45.1766 6.0683 40.0121 6.0683 34.6953C6.0683 19.202 18.821 6.58789 34.5 6.58789C42.0931 6.58789 49.2241 9.51289 54.5839 14.8297C59.9437 20.1465 63.2397 27.2 63.2243 34.7105C63.2243 50.2191 50.1482 62.8332 34.4846 62.8332ZM50.0712 41.7793C49.2241 41.3527 45.0194 39.3113 44.2339 39.0371C43.4484 38.7477 42.8786 38.6105 42.3087 39.4637C41.7388 40.3168 40.1063 42.2059 39.598 42.7848C39.1051 43.3484 38.5969 43.4246 37.7498 42.998C32.7288 40.5148 29.4328 38.5648 26.1214 32.9434C25.2435 31.4504 26.9993 31.557 28.6319 28.3273C28.9091 27.7637 28.7705 27.2762 28.5549 26.8496C28.3393 26.423 26.6297 22.2641 25.9212 20.573C25.2281 18.9277 24.5196 19.1562 23.996 19.1258C23.5031 19.0953 22.9333 19.0953 22.3634 19.0953C21.7935 19.0953 20.8694 19.3086 20.0839 20.1465C19.2984 20.9996 17.096 23.041 17.096 27.2C17.096 31.359 20.1609 35.3809 20.5768 35.9445C21.008 36.5082 26.5989 45.0395 35.1777 48.7109C40.5991 51.0266 42.7246 51.2246 45.4353 50.8285C47.0833 50.5848 50.487 48.7871 51.1955 46.8066C51.904 44.8262 51.904 43.1352 51.6884 42.7848C51.4882 42.4039 50.9183 42.1906 50.0712 41.7793Z" fill="white"/>
</svg>
