<svg width="144" height="30" viewBox="0 0 144 30" fill="none" xmlns="http://www.w3.org/2000/svg">
<path d="M6.94238 16.2764L7.35254 19.0889L7.95312 16.5547L12.1719 1.67188H14.5449L18.6611 16.5547L19.2471 19.1328L19.7012 16.2617L23.0117 1.67188H25.8389L20.668 23H18.1045L13.71 7.45801L13.373 5.83203L13.0361 7.45801L8.48047 23H5.91699L0.760742 1.67188H3.57324L6.94238 16.2764ZM32.7588 9.06934C33.96 7.59473 35.5225 6.85742 37.4463 6.85742C40.7959 6.85742 42.4854 8.74707 42.5146 12.5264V23H39.8047V12.5117C39.7949 11.3691 39.5312 10.5244 39.0137 9.97754C38.5059 9.43066 37.71 9.15723 36.626 9.15723C35.7471 9.15723 34.9756 9.3916 34.3115 9.86035C33.6475 10.3291 33.1299 10.9443 32.7588 11.7061V23H30.0488V0.5H32.7588V9.06934ZM57.8574 23C57.7012 22.6875 57.5742 22.1309 57.4766 21.3301C56.2168 22.6387 54.7129 23.293 52.9648 23.293C51.4023 23.293 50.1182 22.8535 49.1123 21.9746C48.1162 21.0859 47.6182 19.9629 47.6182 18.6055C47.6182 16.9551 48.2432 15.6758 49.4932 14.7676C50.7529 13.8496 52.5205 13.3906 54.7959 13.3906H57.4326V12.1455C57.4326 11.1982 57.1494 10.4463 56.583 9.88965C56.0166 9.32324 55.1816 9.04004 54.0781 9.04004C53.1113 9.04004 52.3008 9.28418 51.6465 9.77246C50.9922 10.2607 50.665 10.8516 50.665 11.5449H47.9404C47.9404 10.7539 48.2188 9.99219 48.7754 9.25977C49.3418 8.51758 50.1035 7.93164 51.0605 7.50195C52.0273 7.07227 53.0869 6.85742 54.2393 6.85742C56.0654 6.85742 57.4961 7.31641 58.5312 8.23438C59.5664 9.14258 60.1035 10.3975 60.1426 11.999V19.2939C60.1426 20.749 60.3281 21.9062 60.6992 22.7656V23H57.8574ZM53.3604 20.9346C54.21 20.9346 55.0156 20.7148 55.7773 20.2754C56.5391 19.8359 57.0908 19.2646 57.4326 18.5615V15.3096H55.3086C51.9883 15.3096 50.3281 16.2812 50.3281 18.2246C50.3281 19.0742 50.6113 19.7383 51.1777 20.2168C51.7441 20.6953 52.4717 20.9346 53.3604 20.9346ZM69.5674 3.3125V7.15039H72.5264V9.24512H69.5674V19.0742C69.5674 19.709 69.6992 20.1875 69.9629 20.5098C70.2266 20.8223 70.6758 20.9785 71.3105 20.9785C71.623 20.9785 72.0527 20.9199 72.5996 20.8027V23C71.8867 23.1953 71.1934 23.293 70.5195 23.293C69.3086 23.293 68.3955 22.9268 67.7803 22.1943C67.165 21.4619 66.8574 20.4219 66.8574 19.0742V9.24512H63.9717V7.15039H66.8574V3.3125H69.5674ZM86.4336 18.7959C86.4336 18.0635 86.1553 17.4971 85.5986 17.0967C85.0518 16.6865 84.0898 16.335 82.7129 16.042C81.3457 15.749 80.2568 15.3975 79.4463 14.9873C78.6455 14.5771 78.0498 14.0889 77.6592 13.5225C77.2783 12.9561 77.0879 12.2822 77.0879 11.501C77.0879 10.2021 77.6348 9.10352 78.7285 8.20508C79.832 7.30664 81.2383 6.85742 82.9473 6.85742C84.7441 6.85742 86.1992 7.32129 87.3125 8.24902C88.4355 9.17676 88.9971 10.3633 88.9971 11.8086H86.2725C86.2725 11.0664 85.9551 10.4268 85.3203 9.88965C84.6953 9.35254 83.9043 9.08398 82.9473 9.08398C81.9609 9.08398 81.1895 9.29883 80.6328 9.72852C80.0762 10.1582 79.7979 10.7197 79.7979 11.4131C79.7979 12.0674 80.0566 12.5605 80.5742 12.8926C81.0918 13.2246 82.0244 13.542 83.3721 13.8447C84.7295 14.1475 85.8281 14.5088 86.668 14.9287C87.5078 15.3486 88.1279 15.8564 88.5283 16.4521C88.9385 17.0381 89.1436 17.7559 89.1436 18.6055C89.1436 20.0215 88.5771 21.1592 87.4443 22.0186C86.3115 22.8682 84.8418 23.293 83.0352 23.293C81.7656 23.293 80.6426 23.0684 79.666 22.6191C78.6895 22.1699 77.9229 21.5449 77.3662 20.7441C76.8193 19.9336 76.5459 19.0596 76.5459 18.1221H79.2559C79.3047 19.0303 79.666 19.7529 80.3398 20.29C81.0234 20.8174 81.9219 21.0811 83.0352 21.0811C84.0605 21.0811 84.8809 20.876 85.4961 20.4658C86.1211 20.0459 86.4336 19.4893 86.4336 18.7959ZM103.959 23C103.803 22.6875 103.676 22.1309 103.578 21.3301C102.318 22.6387 100.814 23.293 99.0664 23.293C97.5039 23.293 96.2197 22.8535 95.2139 21.9746C94.2178 21.0859 93.7197 19.9629 93.7197 18.6055C93.7197 16.9551 94.3447 15.6758 95.5947 14.7676C96.8545 13.8496 98.6221 13.3906 100.897 13.3906H103.534V12.1455C103.534 11.1982 103.251 10.4463 102.685 9.88965C102.118 9.32324 101.283 9.04004 100.18 9.04004C99.2129 9.04004 98.4023 9.28418 97.748 9.77246C97.0938 10.2607 96.7666 10.8516 96.7666 11.5449H94.042C94.042 10.7539 94.3203 9.99219 94.877 9.25977C95.4434 8.51758 96.2051 7.93164 97.1621 7.50195C98.1289 7.07227 99.1885 6.85742 100.341 6.85742C102.167 6.85742 103.598 7.31641 104.633 8.23438C105.668 9.14258 106.205 10.3975 106.244 11.999V19.2939C106.244 20.749 106.43 21.9062 106.801 22.7656V23H103.959ZM99.4619 20.9346C100.312 20.9346 101.117 20.7148 101.879 20.2754C102.641 19.8359 103.192 19.2646 103.534 18.5615V15.3096H101.41C98.0898 15.3096 96.4297 16.2812 96.4297 18.2246C96.4297 19.0742 96.7129 19.7383 97.2793 20.2168C97.8457 20.6953 98.5732 20.9346 99.4619 20.9346ZM125.381 15.251C125.381 17.6631 124.829 19.6064 123.726 21.0811C122.622 22.5557 121.128 23.293 119.243 23.293C117.319 23.293 115.806 22.6826 114.702 21.4619V29.0938H111.992V7.15039H114.468L114.6 8.9082C115.703 7.54102 117.236 6.85742 119.199 6.85742C121.104 6.85742 122.607 7.5752 123.711 9.01074C124.824 10.4463 125.381 12.4434 125.381 15.002V15.251ZM122.671 14.9434C122.671 13.1562 122.29 11.7451 121.528 10.71C120.767 9.6748 119.722 9.15723 118.394 9.15723C116.753 9.15723 115.522 9.88477 114.702 11.3398V18.9131C115.513 20.3584 116.753 21.0811 118.423 21.0811C119.722 21.0811 120.752 20.5684 121.514 19.543C122.285 18.5078 122.671 16.9746 122.671 14.9434ZM143.727 15.251C143.727 17.6631 143.175 19.6064 142.071 21.0811C140.968 22.5557 139.474 23.293 137.589 23.293C135.665 23.293 134.151 22.6826 133.048 21.4619V29.0938H130.338V7.15039H132.813L132.945 8.9082C134.049 7.54102 135.582 6.85742 137.545 6.85742C139.449 6.85742 140.953 7.5752 142.057 9.01074C143.17 10.4463 143.727 12.4434 143.727 15.002V15.251ZM141.017 14.9434C141.017 13.1562 140.636 11.7451 139.874 10.71C139.112 9.6748 138.067 9.15723 136.739 9.15723C135.099 9.15723 133.868 9.88477 133.048 11.3398V18.9131C133.858 20.3584 135.099 21.0811 136.769 21.0811C138.067 21.0811 139.098 20.5684 139.859 19.543C140.631 18.5078 141.017 16.9746 141.017 14.9434Z" fill="white"/>
</svg>
