<svg width="77" height="24" viewBox="0 0 77 24" fill="none" xmlns="http://www.w3.org/2000/svg">
<path d="M12.8975 13.1416H3.6543V20.7002H14.3916V23H0.841797V1.67188H14.2451V3.98633H3.6543V10.8418H12.8975V13.1416ZM21.5166 7.15039L21.5898 8.9082C22.752 7.54102 24.3193 6.85742 26.292 6.85742C28.5088 6.85742 30.0176 7.70703 30.8184 9.40625C31.3457 8.64453 32.0293 8.0293 32.8691 7.56055C33.7188 7.0918 34.7197 6.85742 35.8721 6.85742C39.3486 6.85742 41.1162 8.69824 41.1748 12.3799V23H38.4648V12.541C38.4648 11.4082 38.2061 10.5635 37.6885 10.0068C37.1709 9.44043 36.3018 9.15723 35.0811 9.15723C34.0752 9.15723 33.2402 9.45996 32.5762 10.0654C31.9121 10.6611 31.5264 11.4668 31.4189 12.4824V23H28.6943V12.6143C28.6943 10.3096 27.5664 9.15723 25.3105 9.15723C23.5332 9.15723 22.3174 9.91406 21.6631 11.4277V23H18.9531V7.15039H21.5166ZM56.5615 23C56.4053 22.6875 56.2783 22.1309 56.1807 21.3301C54.9209 22.6387 53.417 23.293 51.6689 23.293C50.1064 23.293 48.8223 22.8535 47.8164 21.9746C46.8203 21.0859 46.3223 19.9629 46.3223 18.6055C46.3223 16.9551 46.9473 15.6758 48.1973 14.7676C49.457 13.8496 51.2246 13.3906 53.5 13.3906H56.1367V12.1455C56.1367 11.1982 55.8535 10.4463 55.2871 9.88965C54.7207 9.32324 53.8857 9.04004 52.7822 9.04004C51.8154 9.04004 51.0049 9.28418 50.3506 9.77246C49.6963 10.2607 49.3691 10.8516 49.3691 11.5449H46.6445C46.6445 10.7539 46.9229 9.99219 47.4795 9.25977C48.0459 8.51758 48.8076 7.93164 49.7646 7.50195C50.7314 7.07227 51.791 6.85742 52.9434 6.85742C54.7695 6.85742 56.2002 7.31641 57.2354 8.23438C58.2705 9.14258 58.8076 10.3975 58.8467 11.999V19.2939C58.8467 20.749 59.0322 21.9062 59.4033 22.7656V23H56.5615ZM52.0645 20.9346C52.9141 20.9346 53.7197 20.7148 54.4814 20.2754C55.2432 19.8359 55.7949 19.2646 56.1367 18.5615V15.3096H54.0127C50.6924 15.3096 49.0322 16.2812 49.0322 18.2246C49.0322 19.0742 49.3154 19.7383 49.8818 20.2168C50.4482 20.6953 51.1758 20.9346 52.0645 20.9346ZM67.5391 23H64.8291V7.15039H67.5391V23ZM64.6094 2.94629C64.6094 2.50684 64.7412 2.13574 65.0049 1.83301C65.2783 1.53027 65.6787 1.37891 66.2061 1.37891C66.7334 1.37891 67.1338 1.53027 67.4072 1.83301C67.6807 2.13574 67.8174 2.50684 67.8174 2.94629C67.8174 3.38574 67.6807 3.75195 67.4072 4.04492C67.1338 4.33789 66.7334 4.48438 66.2061 4.48438C65.6787 4.48438 65.2783 4.33789 65.0049 4.04492C64.7412 3.75195 64.6094 3.38574 64.6094 2.94629ZM76.334 23H73.624V0.5H76.334V23Z" fill="white"/>
</svg>
