<svg width="78" height="60" viewBox="0 0 78 60" fill="none" xmlns="http://www.w3.org/2000/svg">
<path d="M70.6875 0.75H7.3125C3.27387 0.75 0 4.02387 0 8.0625V51.9375C0 55.9761 3.27387 59.25 7.3125 59.25H70.6875C74.7261 59.25 78 55.9761 78 51.9375V8.0625C78 4.02387 74.7261 0.75 70.6875 0.75ZM70.6875 8.0625V14.2789C67.2716 17.0605 61.826 21.3859 50.184 30.502C47.6184 32.5201 42.5362 37.3684 39 37.3119C35.4644 37.369 30.3805 32.5193 27.816 30.502C16.1759 21.3872 10.7288 17.061 7.3125 14.2789V8.0625H70.6875ZM7.3125 51.9375V23.6622C10.8033 26.4426 15.7537 30.3443 23.2991 36.2528C26.6289 38.8739 32.4602 44.66 39 44.6248C45.5077 44.66 51.265 38.9578 54.6995 36.254C62.2448 30.3457 67.1965 26.4429 70.6875 23.6623V51.9375H7.3125Z" fill="white"/>
</svg>
