<svg width="192" height="46" viewBox="0 0 192 46" fill="none" xmlns="http://www.w3.org/2000/svg">
<rect width="192" height="46" rx="23" fill="white"/>
<circle cx="167.5" cy="22.5" r="13.5" fill="#0880EC"/>
<g clip-path="url(#clip0)">
<path d="M166.953 17.0906L167.647 16.3969C167.941 16.1031 168.416 16.1031 168.706 16.3969L174.781 22.4688C175.075 22.7625 175.075 23.2375 174.781 23.5281L168.706 29.6031C168.413 29.8969 167.938 29.8969 167.647 29.6031L166.953 28.9094C166.656 28.6125 166.662 28.1281 166.966 27.8375L170.731 24.25H161.75C161.334 24.25 161 23.9156 161 23.5V22.5C161 22.0844 161.334 21.75 161.75 21.75H170.731L166.966 18.1625C166.659 17.8719 166.653 17.3875 166.953 17.0906Z" fill="white"/>
</g>
<path d="M24.6123 24.6162C24.4805 25.7441 24.063 26.6157 23.3599 27.231C22.6616 27.8413 21.7314 28.1465 20.5693 28.1465C19.3096 28.1465 18.2988 27.6948 17.5371 26.7915C16.7803 25.8882 16.4019 24.6797 16.4019 23.166V22.1406C16.4019 21.1494 16.5776 20.2778 16.9292 19.5259C17.2856 18.7739 17.7886 18.1978 18.438 17.7974C19.0874 17.3921 19.8394 17.1895 20.6938 17.1895C21.8267 17.1895 22.7349 17.5068 23.4185 18.1416C24.1021 18.7715 24.5 19.6455 24.6123 20.7637H23.1987C23.0767 19.9141 22.8105 19.2988 22.4004 18.918C21.9951 18.5371 21.4263 18.3467 20.6938 18.3467C19.7954 18.3467 19.0898 18.6787 18.5771 19.3428C18.0693 20.0068 17.8154 20.9517 17.8154 22.1772V23.21C17.8154 24.3672 18.0571 25.2876 18.5405 25.9712C19.0239 26.6548 19.7002 26.9966 20.5693 26.9966C21.3506 26.9966 21.9487 26.8208 22.3638 26.4692C22.7837 26.1128 23.062 25.4951 23.1987 24.6162H24.6123ZM28.5483 28H27.1934V16.75H28.5483V28ZM32.9458 28H31.5908V20.0752H32.9458V28ZM31.481 17.9731C31.481 17.7534 31.5469 17.5679 31.6787 17.4165C31.8154 17.2651 32.0156 17.1895 32.2793 17.1895C32.543 17.1895 32.7432 17.2651 32.8799 17.4165C33.0166 17.5679 33.085 17.7534 33.085 17.9731C33.085 18.1929 33.0166 18.376 32.8799 18.5225C32.7432 18.6689 32.543 18.7422 32.2793 18.7422C32.0156 18.7422 31.8154 18.6689 31.6787 18.5225C31.5469 18.376 31.481 18.1929 31.481 17.9731ZM39.0498 27.0405C39.5332 27.0405 39.9556 26.894 40.3169 26.6011C40.6782 26.3081 40.8784 25.9419 40.9175 25.5024H42.1992C42.1748 25.9565 42.0186 26.3887 41.7305 26.7988C41.4424 27.209 41.0566 27.5361 40.5732 27.7803C40.0947 28.0244 39.5869 28.1465 39.0498 28.1465C37.9707 28.1465 37.1113 27.7876 36.4717 27.0698C35.8369 26.3472 35.5195 25.3608 35.5195 24.1108V23.8838C35.5195 23.1123 35.6611 22.4263 35.9443 21.8257C36.2275 21.2251 36.6328 20.7588 37.1602 20.4268C37.6924 20.0947 38.3198 19.9287 39.0425 19.9287C39.9312 19.9287 40.6685 20.1948 41.2544 20.7271C41.8452 21.2593 42.1602 21.9502 42.1992 22.7998H40.9175C40.8784 22.2871 40.6831 21.8672 40.3315 21.54C39.9849 21.208 39.5552 21.042 39.0425 21.042C38.354 21.042 37.8193 21.291 37.4385 21.7891C37.0625 22.2822 36.8745 22.9976 36.8745 23.9351V24.1914C36.8745 25.1045 37.0625 25.8076 37.4385 26.3008C37.8145 26.7939 38.3516 27.0405 39.0498 27.0405ZM46.6846 24.3306L45.835 25.2168V28H44.48V16.75H45.835V23.5542L46.5601 22.6826L49.0283 20.0752H50.6763L47.5928 23.3857L51.0352 28H49.4458L46.6846 24.3306ZM59.1343 18.1562V20.0752H60.6138V21.1226H59.1343V26.0371C59.1343 26.3545 59.2002 26.5938 59.332 26.7549C59.4639 26.9111 59.6885 26.9893 60.0059 26.9893C60.1621 26.9893 60.377 26.96 60.6504 26.9014V28C60.2939 28.0977 59.9473 28.1465 59.6104 28.1465C59.0049 28.1465 58.5483 27.9634 58.2407 27.5972C57.9331 27.231 57.7793 26.7109 57.7793 26.0371V21.1226H56.3364V20.0752H57.7793V18.1562H59.1343ZM62.4478 23.9644C62.4478 23.188 62.5991 22.4897 62.9019 21.8696C63.2095 21.2495 63.6343 20.771 64.1763 20.4341C64.7231 20.0972 65.3457 19.9287 66.0439 19.9287C67.123 19.9287 67.9946 20.3022 68.6587 21.0493C69.3276 21.7964 69.6621 22.79 69.6621 24.0303V24.1255C69.6621 24.897 69.5132 25.5903 69.2153 26.2056C68.9224 26.8159 68.5 27.292 67.9482 27.6338C67.4014 27.9756 66.7715 28.1465 66.0586 28.1465C64.9844 28.1465 64.1128 27.7729 63.4438 27.0259C62.7798 26.2788 62.4478 25.29 62.4478 24.0596V23.9644ZM63.8101 24.1255C63.8101 25.0044 64.0127 25.71 64.418 26.2422C64.8281 26.7744 65.375 27.0405 66.0586 27.0405C66.7471 27.0405 67.2939 26.772 67.6992 26.2349C68.1045 25.6929 68.3071 24.936 68.3071 23.9644C68.3071 23.0952 68.0996 22.3921 67.6846 21.855C67.2744 21.313 66.7275 21.042 66.0439 21.042C65.375 21.042 64.8354 21.3081 64.4253 21.8403C64.0151 22.3726 63.8101 23.1343 63.8101 24.1255ZM84.6387 24.6162C84.5068 25.7441 84.0894 26.6157 83.3862 27.231C82.688 27.8413 81.7578 28.1465 80.5957 28.1465C79.3359 28.1465 78.3252 27.6948 77.5635 26.7915C76.8066 25.8882 76.4282 24.6797 76.4282 23.166V22.1406C76.4282 21.1494 76.604 20.2778 76.9556 19.5259C77.312 18.7739 77.8149 18.1978 78.4644 17.7974C79.1138 17.3921 79.8657 17.1895 80.7202 17.1895C81.853 17.1895 82.7612 17.5068 83.4448 18.1416C84.1284 18.7715 84.5264 19.6455 84.6387 20.7637H83.2251C83.103 19.9141 82.8369 19.2988 82.4268 18.918C82.0215 18.5371 81.4526 18.3467 80.7202 18.3467C79.8218 18.3467 79.1162 18.6787 78.6035 19.3428C78.0957 20.0068 77.8418 20.9517 77.8418 22.1772V23.21C77.8418 24.3672 78.0835 25.2876 78.5669 25.9712C79.0503 26.6548 79.7266 26.9966 80.5957 26.9966C81.377 26.9966 81.9751 26.8208 82.3901 26.4692C82.8101 26.1128 83.0884 25.4951 83.2251 24.6162H84.6387ZM86.7437 23.9644C86.7437 23.188 86.895 22.4897 87.1978 21.8696C87.5054 21.2495 87.9302 20.771 88.4722 20.4341C89.019 20.0972 89.6416 19.9287 90.3398 19.9287C91.4189 19.9287 92.2905 20.3022 92.9546 21.0493C93.6235 21.7964 93.958 22.79 93.958 24.0303V24.1255C93.958 24.897 93.8091 25.5903 93.5112 26.2056C93.2183 26.8159 92.7959 27.292 92.2441 27.6338C91.6973 27.9756 91.0674 28.1465 90.3545 28.1465C89.2803 28.1465 88.4087 27.7729 87.7397 27.0259C87.0757 26.2788 86.7437 25.29 86.7437 24.0596V23.9644ZM88.106 24.1255C88.106 25.0044 88.3086 25.71 88.7139 26.2422C89.124 26.7744 89.6709 27.0405 90.3545 27.0405C91.043 27.0405 91.5898 26.772 91.9951 26.2349C92.4004 25.6929 92.603 24.936 92.603 23.9644C92.603 23.0952 92.3955 22.3921 91.9805 21.855C91.5703 21.313 91.0234 21.042 90.3398 21.042C89.6709 21.042 89.1313 21.3081 88.7212 21.8403C88.311 22.3726 88.106 23.1343 88.106 24.1255ZM97.689 20.0752L97.7329 21.0713C98.3384 20.3096 99.1294 19.9287 100.106 19.9287C101.781 19.9287 102.625 20.8735 102.64 22.7632V28H101.285V22.7559C101.28 22.1846 101.148 21.7622 100.89 21.4888C100.636 21.2153 100.238 21.0786 99.6958 21.0786C99.2563 21.0786 98.8706 21.1958 98.5386 21.4302C98.2065 21.6646 97.9478 21.9722 97.7622 22.353V28H96.4072V20.0752H97.689ZM107.272 18.1562V20.0752H108.751V21.1226H107.272V26.0371C107.272 26.3545 107.338 26.5938 107.47 26.7549C107.602 26.9111 107.826 26.9893 108.144 26.9893C108.3 26.9893 108.515 26.96 108.788 26.9014V28C108.432 28.0977 108.085 28.1465 107.748 28.1465C107.143 28.1465 106.686 27.9634 106.378 27.5972C106.071 27.231 105.917 26.7109 105.917 26.0371V21.1226H104.474V20.0752H105.917V18.1562H107.272ZM112.563 28H111.208V20.0752H112.563V28ZM111.098 17.9731C111.098 17.7534 111.164 17.5679 111.296 17.4165C111.433 17.2651 111.633 17.1895 111.896 17.1895C112.16 17.1895 112.36 17.2651 112.497 17.4165C112.634 17.5679 112.702 17.7534 112.702 17.9731C112.702 18.1929 112.634 18.376 112.497 18.5225C112.36 18.6689 112.16 18.7422 111.896 18.7422C111.633 18.7422 111.433 18.6689 111.296 18.5225C111.164 18.376 111.098 18.1929 111.098 17.9731ZM116.77 20.0752L116.814 21.0713C117.419 20.3096 118.21 19.9287 119.187 19.9287C120.862 19.9287 121.707 20.8735 121.721 22.7632V28H120.366V22.7559C120.361 22.1846 120.229 21.7622 119.971 21.4888C119.717 21.2153 119.319 21.0786 118.777 21.0786C118.337 21.0786 117.952 21.1958 117.62 21.4302C117.288 21.6646 117.029 21.9722 116.843 22.353V28H115.488V20.0752H116.77ZM129.407 27.2163C128.88 27.8364 128.106 28.1465 127.085 28.1465C126.241 28.1465 125.596 27.9023 125.152 27.4141C124.712 26.9209 124.49 26.1934 124.485 25.2314V20.0752H125.84V25.1948C125.84 26.396 126.329 26.9966 127.305 26.9966C128.34 26.9966 129.029 26.6108 129.371 25.8394V20.0752H130.726V28H129.437L129.407 27.2163ZM136.83 28.1465C135.755 28.1465 134.881 27.7949 134.208 27.0918C133.534 26.3838 133.197 25.439 133.197 24.2573V24.0083C133.197 23.2222 133.346 22.5215 133.644 21.9062C133.946 21.2861 134.366 20.8027 134.903 20.4561C135.445 20.1045 136.031 19.9287 136.661 19.9287C137.691 19.9287 138.492 20.2681 139.063 20.9468C139.635 21.6255 139.92 22.5972 139.92 23.8618V24.4258H134.552C134.571 25.207 134.798 25.8394 135.233 26.3228C135.672 26.8013 136.229 27.0405 136.903 27.0405C137.381 27.0405 137.787 26.9429 138.119 26.7476C138.451 26.5522 138.741 26.2935 138.99 25.9712L139.818 26.6157C139.154 27.6362 138.158 28.1465 136.83 28.1465ZM136.661 21.042C136.114 21.042 135.655 21.2422 135.284 21.6426C134.913 22.0381 134.684 22.5947 134.596 23.3125H138.565V23.21C138.526 22.5215 138.341 21.9893 138.009 21.6133C137.677 21.2324 137.228 21.042 136.661 21.042Z" fill="#424242"/>
<defs>
<clipPath id="clip0">
<rect width="14" height="16" fill="white" transform="translate(161 15)"/>
</clipPath>
</defs>
</svg>
