<svg width="167" height="24" viewBox="0 0 167 24" fill="none" xmlns="http://www.w3.org/2000/svg">
<path d="M4.61816 1.67188L11.5908 19.0742L18.5635 1.67188H22.2109V23H19.3984V14.6943L19.6621 5.72949L12.6602 23H10.5068L3.51953 5.77344L3.79785 14.6943V23H0.985352V1.67188H4.61816ZM38.0371 23C37.8809 22.6875 37.7539 22.1309 37.6562 21.3301C36.3965 22.6387 34.8926 23.293 33.1445 23.293C31.582 23.293 30.2979 22.8535 29.292 21.9746C28.2959 21.0859 27.7979 19.9629 27.7979 18.6055C27.7979 16.9551 28.4229 15.6758 29.6729 14.7676C30.9326 13.8496 32.7002 13.3906 34.9756 13.3906H37.6123V12.1455C37.6123 11.1982 37.3291 10.4463 36.7627 9.88965C36.1963 9.32324 35.3613 9.04004 34.2578 9.04004C33.291 9.04004 32.4805 9.28418 31.8262 9.77246C31.1719 10.2607 30.8447 10.8516 30.8447 11.5449H28.1201C28.1201 10.7539 28.3984 9.99219 28.9551 9.25977C29.5215 8.51758 30.2832 7.93164 31.2402 7.50195C32.207 7.07227 33.2666 6.85742 34.4189 6.85742C36.2451 6.85742 37.6758 7.31641 38.7109 8.23438C39.7461 9.14258 40.2832 10.3975 40.3223 11.999V19.2939C40.3223 20.749 40.5078 21.9062 40.8789 22.7656V23H38.0371ZM33.54 20.9346C34.3896 20.9346 35.1953 20.7148 35.957 20.2754C36.7188 19.8359 37.2705 19.2646 37.6123 18.5615V15.3096H35.4883C32.168 15.3096 30.5078 16.2812 30.5078 18.2246C30.5078 19.0742 30.791 19.7383 31.3574 20.2168C31.9238 20.6953 32.6514 20.9346 33.54 20.9346ZM50.4941 15.6611L48.7949 17.4336V23H46.085V0.5H48.7949V14.1084L50.2451 12.3652L55.1816 7.15039H58.4775L52.3105 13.7715L59.1953 23H56.0166L50.4941 15.6611ZM69.0596 23.293C66.9111 23.293 65.1631 22.5898 63.8154 21.1836C62.4678 19.7676 61.7939 17.8779 61.7939 15.5146V15.0166C61.7939 13.4443 62.0918 12.043 62.6875 10.8125C63.293 9.57227 64.1328 8.60547 65.207 7.91211C66.291 7.20898 67.4629 6.85742 68.7227 6.85742C70.7832 6.85742 72.3848 7.53613 73.5273 8.89355C74.6699 10.251 75.2412 12.1943 75.2412 14.7236V15.8516H64.5039C64.543 17.4141 64.9971 18.6787 65.8662 19.6455C66.7451 20.6025 67.8584 21.0811 69.2061 21.0811C70.1631 21.0811 70.9736 20.8857 71.6377 20.4951C72.3018 20.1045 72.8828 19.5869 73.3809 18.9424L75.0361 20.2314C73.708 22.2725 71.7158 23.293 69.0596 23.293ZM68.7227 9.08398C67.6289 9.08398 66.7109 9.48438 65.9688 10.2852C65.2266 11.0762 64.7676 12.1895 64.5918 13.625H72.5312V13.4199C72.4531 12.043 72.082 10.9785 71.418 10.2266C70.7539 9.46484 69.8555 9.08398 68.7227 9.08398ZM98.6172 23C98.4609 22.6875 98.334 22.1309 98.2363 21.3301C96.9766 22.6387 95.4727 23.293 93.7246 23.293C92.1621 23.293 90.8779 22.8535 89.8721 21.9746C88.876 21.0859 88.3779 19.9629 88.3779 18.6055C88.3779 16.9551 89.0029 15.6758 90.2529 14.7676C91.5127 13.8496 93.2803 13.3906 95.5557 13.3906H98.1924V12.1455C98.1924 11.1982 97.9092 10.4463 97.3428 9.88965C96.7764 9.32324 95.9414 9.04004 94.8379 9.04004C93.8711 9.04004 93.0605 9.28418 92.4062 9.77246C91.752 10.2607 91.4248 10.8516 91.4248 11.5449H88.7002C88.7002 10.7539 88.9785 9.99219 89.5352 9.25977C90.1016 8.51758 90.8633 7.93164 91.8203 7.50195C92.7871 7.07227 93.8467 6.85742 94.999 6.85742C96.8252 6.85742 98.2559 7.31641 99.291 8.23438C100.326 9.14258 100.863 10.3975 100.902 11.999V19.2939C100.902 20.749 101.088 21.9062 101.459 22.7656V23H98.6172ZM94.1201 20.9346C94.9697 20.9346 95.7754 20.7148 96.5371 20.2754C97.2988 19.8359 97.8506 19.2646 98.1924 18.5615V15.3096H96.0684C92.748 15.3096 91.0879 16.2812 91.0879 18.2246C91.0879 19.0742 91.3711 19.7383 91.9375 20.2168C92.5039 20.6953 93.2314 20.9346 94.1201 20.9346ZM131.705 16.2324C131.441 18.4883 130.606 20.2314 129.2 21.4619C127.804 22.6826 125.943 23.293 123.619 23.293C121.1 23.293 119.078 22.3896 117.555 20.583C116.041 18.7764 115.284 16.3594 115.284 13.332V11.2812C115.284 9.29883 115.636 7.55566 116.339 6.05176C117.052 4.54785 118.058 3.39551 119.356 2.59473C120.655 1.78418 122.159 1.37891 123.868 1.37891C126.134 1.37891 127.95 2.01367 129.317 3.2832C130.685 4.54297 131.48 6.29102 131.705 8.52734H128.878C128.634 6.82812 128.102 5.59766 127.281 4.83594C126.471 4.07422 125.333 3.69336 123.868 3.69336C122.071 3.69336 120.66 4.35742 119.635 5.68555C118.619 7.01367 118.111 8.90332 118.111 11.3545V13.4199C118.111 15.7344 118.595 17.5752 119.562 18.9424C120.528 20.3096 121.881 20.9932 123.619 20.9932C125.182 20.9932 126.378 20.6416 127.208 19.9385C128.048 19.2256 128.604 17.9902 128.878 16.2324H131.705ZM146.418 23C146.262 22.6875 146.135 22.1309 146.037 21.3301C144.777 22.6387 143.273 23.293 141.525 23.293C139.963 23.293 138.679 22.8535 137.673 21.9746C136.677 21.0859 136.179 19.9629 136.179 18.6055C136.179 16.9551 136.804 15.6758 138.054 14.7676C139.313 13.8496 141.081 13.3906 143.356 13.3906H145.993V12.1455C145.993 11.1982 145.71 10.4463 145.144 9.88965C144.577 9.32324 143.742 9.04004 142.639 9.04004C141.672 9.04004 140.861 9.28418 140.207 9.77246C139.553 10.2607 139.226 10.8516 139.226 11.5449H136.501C136.501 10.7539 136.779 9.99219 137.336 9.25977C137.902 8.51758 138.664 7.93164 139.621 7.50195C140.588 7.07227 141.647 6.85742 142.8 6.85742C144.626 6.85742 146.057 7.31641 147.092 8.23438C148.127 9.14258 148.664 10.3975 148.703 11.999V19.2939C148.703 20.749 148.889 21.9062 149.26 22.7656V23H146.418ZM141.921 20.9346C142.771 20.9346 143.576 20.7148 144.338 20.2754C145.1 19.8359 145.651 19.2646 145.993 18.5615V15.3096H143.869C140.549 15.3096 138.889 16.2812 138.889 18.2246C138.889 19.0742 139.172 19.7383 139.738 20.2168C140.305 20.6953 141.032 20.9346 141.921 20.9346ZM157.396 23H154.686V0.5H157.396V23ZM166.19 23H163.48V0.5H166.19V23Z" fill="white"/>
</svg>
